<svg style="position: absolute; width: 0; height: 0;" width="0" height="0" version="1.1" xmlns="http://www.w3.org/2000/svg" xmlns:xlink="http://www.w3.org/1999/xlink">
  <defs>
    <symbol id="icon-search" viewBox="0 0 1024 1024">
      <title>search</title>
      <path class="path1"
            d="M406 598q80 0 136-56t56-136-56-136-136-56-136 56-56 136 56 136 136 56zM662 598l212 212-64 64-212-212v-34l-12-12q-76 66-180 66-116 0-197-80t-81-196 81-197 197-81 196 81 80 197q0 104-66 180l12 12h34z"></path>
    </symbol>
    <symbol id="icon-fire" viewBox="0 0 32 32">
      <title>fire</title>
      <path class="path1" d="M10.031 32c-2.133-4.438-0.997-6.981 0.642-9.376 1.795-2.624 2.258-5.221 2.258-5.221s1.411 1.834 0.847 4.703c2.493-2.775 2.963-7.196 2.587-8.889 5.635 3.938 8.043 12.464 4.798 18.783 17.262-9.767 4.294-24.38 2.036-26.027 0.753 1.646 0.895 4.433-0.625 5.785-2.573-9.759-8.937-11.759-8.937-11.759 0.753 5.033-2.728 10.536-6.084 14.648-0.118-2.007-0.243-3.392-1.298-5.312-0.237 3.646-3.023 6.617-3.777 10.27-1.022 4.946 0.765 8.568 7.555 12.394z"></path>
    </symbol>
    <symbol id="icon-star" viewBox="0 0 1024 1024">
      <title>star</title>
      <path class="path1"
            d="M512 736l-264 160 70-300-232-202 306-26 120-282 120 282 306 26-232 202 70 300z"></path>
    </symbol>
    <symbol id="icon-recently" viewBox="0 0 1024 1024">
      <title>recently</title>
      <path class="path1"
            d="M512 342h64v180l150 90-32 52-182-110v-212zM554 128q158 0 271 112t113 272-113 272-271 112-270-112l60-62q88 88 210 88 124 0 212-87t88-211-88-211-212-87-211 87-87 211h128l-172 172-4-6-166-166h128q0-160 113-272t271-112z"></path>
    </symbol>
    <symbol id="icon-repo-forked" viewBox="0 0 10 16">
      <path fill-rule="evenodd"
            d="M8 1a1.993 1.993 0 0 0-1 3.72V6L5 8 3 6V4.72A1.993 1.993 0 0 0 2 1a1.993 1.993 0 0 0-1 3.72V6.5l3 3v1.78A1.993 1.993 0 0 0 5 15a1.993 1.993 0 0 0 1-3.72V9.5l3-3V4.72A1.993 1.993 0 0 0 8 1zM2 4.2C1.34 4.2.8 3.65.8 3c0-.65.55-1.2 1.2-1.2.65 0 1.2.55 1.2 1.2 0 .65-.55 1.2-1.2 1.2zm3 10c-.66 0-1.2-.55-1.2-1.2 0-.65.55-1.2 1.2-1.2.65 0 1.2.55 1.2 1.2 0 .65-.55 1.2-1.2 1.2zm3-10c-.66 0-1.2-.55-1.2-1.2 0-.65.55-1.2 1.2-1.2.65 0 1.2.55 1.2 1.2 0 .65-.55 1.2-1.2 1.2z"></path>
    </symbol>
    <symbol id="icon-git" viewBox="0 0 97 97">
	    <path
        d="M92.71,44.408L52.591,4.291c-2.31-2.311-6.057-2.311-8.369,0l-8.33,8.332L46.459,23.19c2.456-0.83,5.272-0.273,7.229,1.685c1.969,1.97,2.521,4.81,1.67,7.275l10.186,10.185c2.465-0.85,5.307-0.3,7.275,1.671c2.75,2.75,2.75,7.206,0,9.958c-2.752,2.751-7.208,2.751-9.961,0c-2.068-2.07-2.58-5.11-1.531-7.658l-9.5-9.499v24.997c0.67,0.332,1.303,0.774,1.861,1.332c2.75,2.75,2.75,7.206,0,9.959c-2.75,2.749-7.209,2.749-9.957,0c-2.75-2.754-2.75-7.21,0-9.959c0.68-0.679,1.467-1.193,2.307-1.537V36.369c-0.84-0.344-1.625-0.853-2.307-1.537c-2.083-2.082-2.584-5.14-1.516-7.698L31.798,16.715L4.288,44.222c-2.311,2.313-2.311,6.06,0,8.371l40.121,40.118c2.31,2.311,6.056,2.311,8.369,0L92.71,52.779C95.021,50.468,95.021,46.719,92.71,44.408z"/>
    </symbol>
    <symbol id="icon-github" viewBox="0 0 16 16">
      <path fill-rule="evenodd"
        d="M8 0C3.58 0 0 3.58 0 8c0 3.54 2.29 6.53 5.47 7.59.4.07.55-.17.55-.38 0-.19-.01-.82-.01-1.49-2.01.37-2.53-.49-2.69-.94-.09-.23-.48-.94-.82-1.13-.28-.15-.68-.52-.01-.53.63-.01 1.08.58 1.23.82.72 1.21 1.87.87 2.33.66.07-.52.28-.87.51-1.07-1.78-.2-3.64-.89-3.64-3.95 0-.87.31-1.59.82-2.15-.08-.2-.36-1.02.08-2.12 0 0 .67-.21 2.2.82.64-.18 1.32-.27 2-.27.68 0 1.36.09 2 .27 1.53-1.04 2.2-.82 2.2-.82.44 1.1.16 1.92.08 2.12.51.56.82 1.27.82 2.15 0 3.07-1.87 3.75-3.65 3.95.29.25.54.73.54 1.48 0 1.07-.01 1.93-.01 2.2 0 .21.15.46.55.38A8.013 8.013 0 0 0 16 8c0-4.42-3.58-8-8-8z" />
    </symbol>
    <symbol id="icon-issue" viewBox="0 0 14 16">
      <path fill-rule="evenodd"
        d="M7 2.3c3.14 0 5.7 2.56 5.7 5.7s-2.56 5.7-5.7 5.7A5.71 5.71 0 0 1 1.3 8c0-3.14 2.56-5.7 5.7-5.7zM7 1C3.14 1 0 4.14 0 8s3.14 7 7 7 7-3.14 7-7-3.14-7-7-7zm1 3H6v5h2V4zm0 6H6v2h2v-2z" />
    </symbol>
    <symbol id="icon-pencil" viewBox="0 0 14 16">
      <path fill-rule="evenodd"
        d="M0 12v3h3l8-8-3-3-8 8zm3 2H1v-2h1v1h1v1zm10.3-9.3L12 6 9 3l1.3-1.3a.996.996 0 0 1 1.41 0l1.59 1.59c.39.39.39 1.02 0 1.41z" />
      </path>
    </symbol>
    <symbol id="icon-edit" viewBox="0 0 16 16">
      <path
        d="M13 8a1 1 0 0 1 2 0v4a3 3 0 0 1-3 3H4a3 3 0 0 1-3-3V4a3 3 0 0 1 3-3h4a1 1 0 1 1 0 2H4a1 1 0 0 0-1 1v8a1 1 0 0 0 1 1h8a1 1 0 0 0 1-1V8zm-.879-5.536l1.415 1.415-6.581 6.58a.5.5 0 0 1-.25.136l-1.655.355.355-1.656a.5.5 0 0 1 .135-.249l6.581-6.58zM14.95 1.05a1 1 0 0 1 0 1.414l-.707.708-1.415-1.415.708-.707a1 1 0 0 1 1.414 0z"/>
    </symbol>
    <symbol id="icon-gitlab" viewBox="0 0 16 16">
      <path  fill-rule="evenodd"
        d="M5.18731,7 L4.04666,4.36937 L2.00626,9.3195 L8.0002,13.7511 L13.9959,9.31948 L11.9539,4.36817 L10.8127,7 L5.18731,7 Z M11.5298,0.318914 C11.7055,-0.0864834 12.2823,-0.0813023 12.4507,0.327188 L15.8449,8.55694 C16.1947,9.4051 15.9225,10.3825 15.1847,10.9278 L8.5945,15.7989 C8.24121,16.06 7.75886,16.06 7.40561,15.7988 L0.817247,10.9277 C0.0797242,10.3824 -0.192356,9.40532 0.157182,8.55733 L3.54941,0.327579 C3.71782,-0.0809883 4.29461,-0.0862265 4.47042,0.319215 L6.50002,5 L9.50002,5 L11.5298,0.318914 Z"/>
    </symbol>
  </defs>
</svg>
