<svg style="position: absolute; width: 0; height: 0;" width="0" height="0" version="1.1"
  xmlns="http://www.w3.org/2000/svg"
  xmlns:xlink="http://www.w3.org/1999/xlink">
  <defs>
    <symbol id="icon-search" viewBox="0 0 1024 1024">
      <title>search</title>
      <path class="path1" d="M406 598q80 0 136-56t56-136-56-136-136-56-136 56-56 136 56 136 136 56zM662 598l212 212-64 64-212-212v-34l-12-12q-76 66-180 66-116 0-197-80t-81-196 81-197 197-81 196 81 80 197q0 104-66 180l12 12h34z" />
    </symbol>
    <symbol id="icon-fire" viewBox="0 0 32 32">
      <title>fire</title>
      <path class="path1" d="M10.031 32c-2.133-4.438-0.997-6.981 0.642-9.376 1.795-2.624 2.258-5.221 2.258-5.221s1.411 1.834 0.847 4.703c2.493-2.775 2.963-7.196 2.587-8.889 5.635 3.938 8.043 12.464 4.798 18.783 17.262-9.767 4.294-24.38 2.036-26.027 0.753 1.646 0.895 4.433-0.625 5.785-2.573-9.759-8.937-11.759-8.937-11.759 0.753 5.033-2.728 10.536-6.084 14.648-0.118-2.007-0.243-3.392-1.298-5.312-0.237 3.646-3.023 6.617-3.777 10.27-1.022 4.946 0.765 8.568 7.555 12.394z" />
    </symbol>
    <symbol id="icon-star" viewBox="0 0 1024 1024">
      <title>star</title>
      <path class="path1" d="M512 736l-264 160 70-300-232-202 306-26 120-282 120 282 306 26-232 202 70 300z" />
    </symbol>
    <symbol id="icon-recently" viewBox="0 0 1024 1024">
      <title>recently</title>
      <path class="path1" d="M512 342h64v180l150 90-32 52-182-110v-212zM554 128q158 0 271 112t113 272-113 272-271 112-270-112l60-62q88 88 210 88 124 0 212-87t88-211-88-211-212-87-211 87-87 211h128l-172 172-4-6-166-166h128q0-160 113-272t271-112z" />
    </symbol>
    <symbol id="icon-repo-forked" viewBox="0 0 10 16">
      <path fill-rule="evenodd" d="M8 1a1.993 1.993 0 0 0-1 3.72V6L5 8 3 6V4.72A1.993 1.993 0 0 0 2 1a1.993 1.993 0 0 0-1 3.72V6.5l3 3v1.78A1.993 1.993 0 0 0 5 15a1.993 1.993 0 0 0 1-3.72V9.5l3-3V4.72A1.993 1.993 0 0 0 8 1zM2 4.2C1.34 4.2.8 3.65.8 3c0-.65.55-1.2 1.2-1.2.65 0 1.2.55 1.2 1.2 0 .65-.55 1.2-1.2 1.2zm3 10c-.66 0-1.2-.55-1.2-1.2 0-.65.55-1.2 1.2-1.2.65 0 1.2.55 1.2 1.2 0 .65-.55 1.2-1.2 1.2zm3-10c-.66 0-1.2-.55-1.2-1.2 0-.65.55-1.2 1.2-1.2.65 0 1.2.55 1.2 1.2 0 .65-.55 1.2-1.2 1.2z" />
    </symbol>
    <symbol id="icon-git" viewBox="0 0 97 97">
      <path d="M92.71,44.408L52.591,4.291c-2.31-2.311-6.057-2.311-8.369,0l-8.33,8.332L46.459,23.19c2.456-0.83,5.272-0.273,7.229,1.685c1.969,1.97,2.521,4.81,1.67,7.275l10.186,10.185c2.465-0.85,5.307-0.3,7.275,1.671c2.75,2.75,2.75,7.206,0,9.958c-2.752,2.751-7.208,2.751-9.961,0c-2.068-2.07-2.58-5.11-1.531-7.658l-9.5-9.499v24.997c0.67,0.332,1.303,0.774,1.861,1.332c2.75,2.75,2.75,7.206,0,9.959c-2.75,2.749-7.209,2.749-9.957,0c-2.75-2.754-2.75-7.21,0-9.959c0.68-0.679,1.467-1.193,2.307-1.537V36.369c-0.84-0.344-1.625-0.853-2.307-1.537c-2.083-2.082-2.584-5.14-1.516-7.698L31.798,16.715L4.288,44.222c-2.311,2.313-2.311,6.06,0,8.371l40.121,40.118c2.31,2.311,6.056,2.311,8.369,0L92.71,52.779C95.021,50.468,95.021,46.719,92.71,44.408z"/>
    </symbol>
    <symbol id="icon-github" viewBox="0 0 16 16">
      <path fill-rule="evenodd" d="M8 0C3.58 0 0 3.58 0 8c0 3.54 2.29 6.53 5.47 7.59.4.07.55-.17.55-.38 0-.19-.01-.82-.01-1.49-2.01.37-2.53-.49-2.69-.94-.09-.23-.48-.94-.82-1.13-.28-.15-.68-.52-.01-.53.63-.01 1.08.58 1.23.82.72 1.21 1.87.87 2.33.66.07-.52.28-.87.51-1.07-1.78-.2-3.64-.89-3.64-3.95 0-.87.31-1.59.82-2.15-.08-.2-.36-1.02.08-2.12 0 0 .67-.21 2.2.82.64-.18 1.32-.27 2-.27.68 0 1.36.09 2 .27 1.53-1.04 2.2-.82 2.2-.82.44 1.1.16 1.92.08 2.12.51.56.82 1.27.82 2.15 0 3.07-1.87 3.75-3.65 3.95.29.25.54.73.54 1.48 0 1.07-.01 1.93-.01 2.2 0 .21.15.46.55.38A8.013 8.013 0 0 0 16 8c0-4.42-3.58-8-8-8z" />
    </symbol>
    <symbol id="icon-issue" viewBox="0 0 14 16">
      <path fill-rule="evenodd" d="M7 2.3c3.14 0 5.7 2.56 5.7 5.7s-2.56 5.7-5.7 5.7A5.71 5.71 0 0 1 1.3 8c0-3.14 2.56-5.7 5.7-5.7zM7 1C3.14 1 0 4.14 0 8s3.14 7 7 7 7-3.14 7-7-3.14-7-7-7zm1 3H6v5h2V4zm0 6H6v2h2v-2z" />
    </symbol>
    <symbol id="icon-pencil" viewBox="0 0 14 16">
      <path fill-rule="evenodd" d="M0 12v3h3l8-8-3-3-8 8zm3 2H1v-2h1v1h1v1zm10.3-9.3L12 6 9 3l1.3-1.3a.996.996 0 0 1 1.41 0l1.59 1.59c.39.39.39 1.02 0 1.41z" />

    </symbol>
    <symbol id="icon-edit" viewBox="0 0 16 16">
      <path d="M13 8a1 1 0 0 1 2 0v4a3 3 0 0 1-3 3H4a3 3 0 0 1-3-3V4a3 3 0 0 1 3-3h4a1 1 0 1 1 0 2H4a1 1 0 0 0-1 1v8a1 1 0 0 0 1 1h8a1 1 0 0 0 1-1V8zm-.879-5.536l1.415 1.415-6.581 6.58a.5.5 0 0 1-.25.136l-1.655.355.355-1.656a.5.5 0 0 1 .135-.249l6.581-6.58zM14.95 1.05a1 1 0 0 1 0 1.414l-.707.708-1.415-1.415.708-.707a1 1 0 0 1 1.414 0z"/>
    </symbol>
    <symbol id="icon-gitlab" viewBox="0 0 16 16">
      <path fill-rule="evenodd" d="M5.18731,7 L4.04666,4.36937 L2.00626,9.3195 L8.0002,13.7511 L13.9959,9.31948 L11.9539,4.36817 L10.8127,7 L5.18731,7 Z M11.5298,0.318914 C11.7055,-0.0864834 12.2823,-0.0813023 12.4507,0.327188 L15.8449,8.55694 C16.1947,9.4051 15.9225,10.3825 15.1847,10.9278 L8.5945,15.7989 C8.24121,16.06 7.75886,16.06 7.40561,15.7988 L0.817247,10.9277 C0.0797242,10.3824 -0.192356,9.40532 0.157182,8.55733 L3.54941,0.327579 C3.71782,-0.0809883 4.29461,-0.0862265 4.47042,0.319215 L6.50002,5 L9.50002,5 L11.5298,0.318914 Z"/>
    </symbol>
    <symbol id="icon-tag" viewBox="0 0 16 16">
      <path fill-rule="evenodd" d="M7.73 1.73C7.26 1.26 6.62 1 5.96 1H3.5C2.13 1 1 2.13 1 3.5v2.47c0 .66.27 1.3.73 1.77l6.06 6.06c.39.39 1.02.39 1.41 0l4.59-4.59a.996.996 0 0 0 0-1.41L7.73 1.73zM2.38 7.09c-.31-.3-.47-.7-.47-1.13V3.5c0-.88.72-1.59 1.59-1.59h2.47c.42 0 .83.16 1.13.47l6.14 6.13l-4.73 4.73l-6.13-6.15zM3.01 3h2v2H3V3h.01z" />
    </symbol>
    <symbol id="icon-book" viewBox="0 0 16 16">
      <path fill-rule="evenodd" d="M3 5h4v1H3V5zm0 3h4V7H3v1zm0 2h4V9H3v1zm11-5h-4v1h4V5zm0 2h-4v1h4V7zm0 2h-4v1h4V9zm2-6v9c0 .55-.45 1-1 1H9.5l-1 1-1-1H2c-.55 0-1-.45-1-1V3c0-.55.45-1 1-1h5.5l1 1 1-1H15c.55 0 1 .45 1 1zm-8 .5L7.5 3H2v9h6V3.5zm7-.5H9.5l-.5.5V12h6V3z" />
    </symbol>
    <symbol id="icon-package" viewBox="0 0 16 16">
      <path fill-rule="evenodd" d="M1 4.27v7.47c0 .45.3.84.75.97l6.5 1.73c.16.05.34.05.5 0l6.5-1.73c.45-.13.75-.52.75-.97V4.27c0-.45-.3-.84-.75-.97l-6.5-1.74a1.4 1.4 0 00-.5 0L1.75 3.3c-.45.13-.75.52-.75.97zm7 9.09l-6-1.59V5l6 1.61v6.75zM2 4l2.5-.67L11 5.06l-2.5.67L2 4zm13 7.77l-6 1.59V6.61l2-.55V8.5l2-.53V5.53L15 5v6.77zm-2-7.24L6.5 2.8l2-.53L15 4l-2 .53z" />
    </symbol>
    <symbol id="icon-home" viewBox="0 0 16 16">
      <path fill-rule="evenodd" d="M16 9l-3-3V2h-2v2L8 1 0 9h2l1 5c0 .55.45 1 1 1h8c.55 0 1-.45 1-1l1-5h2zm-4 5H9v-4H7v4H4L2.81 7.69 8 2.5l5.19 5.19L12 14z" />
    </symbol>
    <symbol id="icon-graph" viewBox="0 0 16 16">
      <path fill-rule="evenodd" d="M16 14v1H0V0h1v14h15zM5 13H3V8h2v5zm4 0H7V3h2v10zm4 0h-2V6h2v7z" />
    </symbol>
    <symbol id="icon-file" viewBox="0 0 12 16">
      <path fill-rule="evenodd" d="M6 5H2V4h4v1zM2 8h7V7H2v1zm0 2h7V9H2v1zm0 2h7v-1H2v1zm10-7.5V14c0 .55-.45 1-1 1H1c-.55 0-1-.45-1-1V2c0-.55.45-1 1-1h7.5L12 4.5zM11 5L8 2H1v12h10V5z"/>
    </symbol>
    <symbol id="icon-mirror" viewBox="0 0 16 16">
      <path fill-rule="evenodd" d="M15.5 4.7L8.5 0l-7 4.7c-.3.19-.5.45-.5.8V16l7.5-4 7.5 4V5.5c0-.34-.2-.61-.5-.8zm-.5 9.8l-6-3.25V10H8v1.25L2 14.5v-9l6-4V6h1V1.5l6 4v9zM6 7h5V5l3 3-3 3V9H6v2L3 8l3-3v2z"/>
    </symbol>
    <symbol id="icon-dependent" viewBox="0 0 16 16">
      <path d="M1 1h7.5l2 2H9L8 2H1v12h10v-1h1v1c0 .55-.45 1-1 1H1c-.55 0-1-.45-1-1V2c0-.55.45-1 1-1zm9 6h3v1h-3V7zm2 2h-2v1h2V9zM8.583 4h4.375L15 6v5.429a.58.58 0 01-.583.571H8.583A.58.58 0 018 11.429V10h1v1h5V6.5L12.5 5H9v1H8V4.571A.58.58 0 018.583 4zM9.5 7H6.667V5l-4 3 4 3V9H9.5V7z"/>
    </symbol>
    <symbol id="icon-code" viewBox="0 0 14 16">
      <path fill-rule="evenodd" d="M9.5 3L8 4.5 11.5 8 8 11.5 9.5 13 14 8 9.5 3zm-5 0L0 8l4.5 5L6 11.5 2.5 8 6 4.5 4.5 3z"/>
    </symbol>
    <symbol id="icon-info" viewBox="0 0 14 16">
      <path fill-rule="evenodd" d="M6.3 5.69a.942.942 0 01-.28-.7c0-.28.09-.52.28-.7.19-.18.42-.28.7-.28.28 0 .52.09.7.28.18.19.28.42.28.7 0 .28-.09.52-.28.7a1 1 0 01-.7.3c-.28 0-.52-.11-.7-.3zM8 7.99c-.02-.25-.11-.48-.31-.69-.2-.19-.42-.3-.69-.31H6c-.27.02-.48.13-.69.31-.2.2-.3.44-.31.69h1v3c.02.27.11.5.31.69.2.2.42.31.69.31h1c.27 0 .48-.11.69-.31.2-.19.3-.42.31-.69H8V7.98v.01zM7 2.3c-3.14 0-5.7 2.54-5.7 5.68 0 3.14 2.56 5.7 5.7 5.7s5.7-2.55 5.7-5.7c0-3.15-2.56-5.69-5.7-5.69v.01zM7 .98c3.86 0 7 3.14 7 7s-3.14 7-7 7-7-3.12-7-7 3.14-7 7-7z"/>
    </symbol>
    <symbol id="icon-law"
      xmlns="http://www.w3.org/2000/svg" viewBox="0 0 14 16">
      <path fill-rule="evenodd" d="M7 4c-.83 0-1.5-.67-1.5-1.5S6.17 1 7 1s1.5.67 1.5 1.5S7.83 4 7 4zm7 6c0 1.11-.89 2-2 2h-1c-1.11 0-2-.89-2-2l2-4h-1c-.55 0-1-.45-1-1H8v8c.42 0 1 .45 1 1h1c.42 0 1 .45 1 1H3c0-.55.58-1 1-1h1c0-.55.58-1 1-1h.03L6 5H5c0 .55-.45 1-1 1H3l2 4c0 1.11-.89 2-2 2H2c-1.11 0-2-.89-2-2l2-4H1V5h3c0-.55.45-1 1-1h4c.55 0 1 .45 1 1h3v1h-1l2 4zM2.5 7L1 10h3L2.5 7zM13 10l-1.5-3-1.5 3h3z"/>
    </symbol>
    <symbol id="icon-person"
      xmlns="http://www.w3.org/2000/svg" viewBox="0 0 12 16">
      <path fill-rule="evenodd" d="M12 14.002a.998.998 0 01-.998.998H1.001A1 1 0 010 13.999V13c0-2.633 4-4 4-4s.229-.409 0-1c-.841-.62-.944-1.59-1-4 .173-2.413 1.867-3 3-3s2.827.586 3 3c-.056 2.41-.159 3.38-1 4-.229.59 0 1 0 1s4 1.367 4 4v1.002z"/>
    </symbol>
    <symbol id="icon-organization" viewBox="0 0 16 16">
      <path fill-rule="evenodd" d="M16 12.999c0 .439-.45 1-1 1H7.995c-.539 0-.994-.447-.995-.999H1c-.54 0-1-.561-1-1 0-2.634 3-4 3-4s.229-.409 0-1c-.841-.621-1.058-.59-1-3 .058-2.419 1.367-3 2.5-3s2.442.58 2.5 3c.058 2.41-.159 2.379-1 3-.229.59 0 1 0 1s1.549.711 2.42 2.088C9.196 9.369 10 8.999 10 8.999s.229-.409 0-1c-.841-.62-1.058-.59-1-3 .058-2.419 1.367-3 2.5-3s2.437.581 2.495 3c.059 2.41-.158 2.38-1 3-.229.59 0 1 0 1s3.005 1.366 3.005 4z"/>
    </symbol>
    <symbol id="icon-note" viewBox="0 0 14 16">
      <path fill-rule="evenodd" d="M3 10h4V9H3v1zm0-2h6V7H3v1zm0-2h8V5H3v1zm10 6H1V3h12v9zM1 2c-.55 0-1 .45-1 1v9c0 .55.45 1 1 1h12c.55 0 1-.45 1-1V3c0-.55-.45-1-1-1H1z"/>
    </symbol>
    <symbol id="icon-pulse" viewBox="0 0 14 16">
      <path fill-rule="evenodd" d="M11.5 8L8.8 5.4 6.6 8.5 5.5 1.6 2.38 8H0v2h3.6l.9-1.8.9 5.4L9 8.5l1.6 1.5H14V8h-2.5z"/>
    </symbol>
    <symbol id="icon-repo" viewBox="0 0 12 16">
      <path fill-rule="evenodd" d="M4 9H3V8h1v1zm0-3H3v1h1V6zm0-2H3v1h1V4zm0-2H3v1h1V2zm8-1v12c0 .55-.45 1-1 1H6v2l-1.5-1.5L3 16v-2H1c-.55 0-1-.45-1-1V1c0-.55.45-1 1-1h10c.55 0 1 .45 1 1zm-1 10H1v2h2v-1h3v1h5v-2zm0-10H2v9h9V1z" />
    </symbol>
    <symbol id="icon-star" viewBox="0 0 14 16">
      <path fill-rule="evenodd" d="M14 6l-4.9-.64L7 1 4.9 5.36 0 6l3.6 3.26L2.67 14 7 11.67 11.33 14l-.93-4.74L14 6z" />
    </symbol>
    <symbol id="icon-versions" viewBox="0 0 14 16">
      <path fill-rule="evenodd" d="M13 3H7c-.55 0-1 .45-1 1v8c0 .55.45 1 1 1h6c.55 0 1-.45 1-1V4c0-.55-.45-1-1-1zm-1 8H8V5h4v6zM4 4h1v1H4v6h1v1H4c-.55 0-1-.45-1-1V5c0-.55.45-1 1-1zM1 5h1v1H1v4h1v1H1c-.55 0-1-.45-1-1V6c0-.55.45-1 1-1z" />
    </symbol>
    <symbol id="icon-workflow" viewBox="0 0 16 16">
      <path fill-rule="evenodd" d="M3 4.949a2.5 2.5 0 10-1 0v8.049c0 .547.453 1 1 1h2.05a2.5 2.5 0 004.9 0h1.1a2.5 2.5 0 100-1h-1.1a2.5 2.5 0 00-4.9 0H3v-5h2.05a2.5 2.5 0 004.9 0h1.1a2.5 2.5 0 100-1h-1.1a2.5 2.5 0 00-4.9 0H3v-2.05zm9 2.55a1.5 1.5 0 103 0 1.5 1.5 0 00-3 0zm-3 0a1.5 1.5 0 10-3 0 1.5 1.5 0 003 0zm4.5 7.499a1.5 1.5 0 110-3.001 1.5 1.5 0 010 3zm-6-3a1.5 1.5 0 110 3 1.5 1.5 0 010-3z" />
    </symbol>
    <symbol id="icon-mortar-board" viewBox="0 0 16 16">
      <path fill-rule="evenodd" d="M8.11 2.8a.34.34 0 00-.2 0L.27 5.18a.35.35 0 000 .67L2 6.4v1.77c-.3.17-.5.5-.5.86 0 .19.05.36.14.5-.08.14-.14.31-.14.5v2.58c0 .55 2 .55 2 0v-2.58c0-.19-.05-.36-.14-.5.08-.14.14-.31.14-.5 0-.38-.2-.69-.5-.86V6.72l4.89 1.53c.06.02.14.02.2 0l7.64-2.38a.35.35 0 000-.67L8.1 2.81l.01-.01zM4 8l3.83 1.19h-.02c.13.03.25.03.36 0L12 8v2.5c0 1-1.8 1.5-4 1.5s-4-.5-4-1.5V8zm3.02-2.5c0 .28.45.5 1 .5s1-.22 1-.5-.45-.5-1-.5-1 .22-1 .5z" />
    </symbol>
    <symbol id="icon-crystal" viewBox="0 0 193.2 206.7">
      <path d="M165.4,122l-50,49.9c-0.2,0.2-0.5,0.3-0.7,0.2l-68.3-18.3c-0.3-0.1-0.5-0.3-0.5-0.5L27.5,85.1c-0.1-0.3,0-0.5,0.2-0.7 l50-49.9c0.2-0.2,0.5-0.3,0.7-0.2l68.3,18.3c0.3,0.1,0.5,0.3,0.5,0.5l18.3,68.2C165.7,121.6,165.6,121.8,165.4,122z M98.4,67.7 L31.3,85.6c-0.1,0-0.2,0.2-0.1,0.3l49.1,49c0.1,0.1,0.3,0.1,0.3-0.1l18-67C98.7,67.8,98.5,67.6,98.4,67.7z" />
    </symbol>
    <symbol id="icon-telescope" viewBox="0 0 14 16">
      <path fill-rule="evenodd" d="M8 9l3 6h-1l-2-4v5H7v-6l-2 5H4l2-5 2-1zM7 0H6v1h1V0zM5 3H4v1h1V3zM2 1H1v1h1V1zM.63 9a.52.52 0 00-.16.67l.55.92c.13.23.41.31.64.2l1.39-.66-1.16-2-1.27.86.01.01zm7.89-5.39l-5.8 3.95L3.95 9.7l6.33-3.03-1.77-3.06h.01zm4.22 1.28l-1.47-2.52a.51.51 0 00-.72-.17l-1.2.83 1.84 3.2 1.33-.64c.27-.13.36-.44.22-.7z" />
    </symbol>
    <symbol id="icon-tools" viewBox="0 0 16 16">
      <path fill-rule="evenodd" d="M4.48 7.27c.26.26 1.28 1.33 1.28 1.33l.56-.58-.88-.91 1.69-1.8s-.76-.74-.43-.45c.32-1.19.03-2.51-.87-3.44C4.93.5 3.66.2 2.52.51l1.93 2-.51 1.96-1.89.52-1.93-2C-.19 4.17.1 5.48 1 6.4c.94.98 2.29 1.26 3.48.87zm6.44 1.94l-2.33 2.3 3.84 3.98c.31.33.73.49 1.14.49.41 0 .82-.16 1.14-.49.63-.65.63-1.7 0-2.35l-3.79-3.93zM16 2.53L13.55 0 6.33 7.46l.88.91-4.31 4.46-.99.53-1.39 2.27.35.37 2.2-1.44.51-1.02L7.9 9.08l.88.91L16 2.53z" />
    </symbol>
    <symbol id="icon-globe" viewBox="0 0 14 16">
      <path fill-rule="evenodd" d="M7 1C3.14 1 0 4.14 0 8s3.14 7 7 7c.48 0 .94-.05 1.38-.14-.17-.08-.2-.73-.02-1.09.19-.41.81-1.45.2-1.8-.61-.35-.44-.5-.81-.91-.37-.41-.22-.47-.25-.58-.08-.34.36-.89.39-.94.02-.06.02-.27 0-.33 0-.08-.27-.22-.34-.23-.06 0-.11.11-.2.13-.09.02-.5-.25-.59-.33-.09-.08-.14-.23-.27-.34-.13-.13-.14-.03-.33-.11s-.8-.31-1.28-.48c-.48-.19-.52-.47-.52-.66-.02-.2-.3-.47-.42-.67-.14-.2-.16-.47-.2-.41-.04.06.25.78.2.81-.05.02-.16-.2-.3-.38-.14-.19.14-.09-.3-.95s.14-1.3.17-1.75c.03-.45.38.17.19-.13-.19-.3 0-.89-.14-1.11-.13-.22-.88.25-.88.25.02-.22.69-.58 1.16-.92.47-.34.78-.06 1.16.05.39.13.41.09.28-.05-.13-.13.06-.17.36-.13.28.05.38.41.83.36.47-.03.05.09.11.22s-.06.11-.38.3c-.3.2.02.22.55.61s.38-.25.31-.55c-.07-.3.39-.06.39-.06.33.22.27.02.5.08.23.06.91.64.91.64-.83.44-.31.48-.17.59.14.11-.28.3-.28.3-.17-.17-.19.02-.3.08-.11.06-.02.22-.02.22-.56.09-.44.69-.42.83 0 .14-.38.36-.47.58-.09.2.25.64.06.66-.19.03-.34-.66-1.31-.41-.3.08-.94.41-.59 1.08.36.69.92-.19 1.11-.09.19.1-.06.53-.02.55.04.02.53.02.56.61.03.59.77.53.92.55.17 0 .7-.44.77-.45.06-.03.38-.28 1.03.09.66.36.98.31 1.2.47.22.16.08.47.28.58.2.11 1.06-.03 1.28.31.22.34-.88 2.09-1.22 2.28-.34.19-.48.64-.84.92s-.81.64-1.27.91c-.41.23-.47.66-.66.8 3.14-.7 5.48-3.5 5.48-6.84 0-3.86-3.14-7-7-7L7 1zm1.64 6.56c-.09.03-.28.22-.78-.08-.48-.3-.81-.23-.86-.28 0 0-.05-.11.17-.14.44-.05.98.41 1.11.41.13 0 .19-.13.41-.05.22.08.05.13-.05.14zM6.34 1.7c-.05-.03.03-.08.09-.14.03-.03.02-.11.05-.14.11-.11.61-.25.52.03-.11.27-.58.3-.66.25zm1.23.89c-.19-.02-.58-.05-.52-.14.3-.28-.09-.38-.34-.38-.25-.02-.34-.16-.22-.19.12-.03.61.02.7.08.08.06.52.25.55.38.02.13 0 .25-.17.25zm1.47-.05c-.14.09-.83-.41-.95-.52-.56-.48-.89-.31-1-.41-.11-.1-.08-.19.11-.34.19-.15.69.06 1 .09.3.03.66.27.66.55.02.25.33.5.19.63h-.01z">
    </symbol>
    <symbol id="icon-copy" viewBox="0 0 1792 1792">
      <path d="M1696 384q40 0 68 28t28 68v1216q0 40-28 68t-68 28H736q-40 0-68-28t-28-68v-288H96q-40 0-68-28t-28-68V640q0-40 20-88t48-76L476 68q28-28 76-48t88-20h416q40 0 68 28t28 68v328q68-40 128-40h416zm-544 213L853 896h299V597zM512 213L213 512h299V213zm196 647l316-316V128H640v416q0 40-28 68t-68 28H128v640h512v-256q0-40 20-88t48-76zm956 804V512h-384v416q0 40-28 68t-68 28H768v640h896z" />
    </symbol>
    <symbol id="icon-watch" viewBox="0 0 12 16">
      <path fill-rule="evenodd" d="M6 8h2v1H5V5h1v3zm6 0c0 2.22-1.2 4.16-3 5.19V15c0 .55-.45 1-1 1H4c-.55 0-1-.45-1-1v-1.81C1.2 12.16 0 10.22 0 8s1.2-4.16 3-5.19V1c0-.55.45-1 1-1h4c.55 0 1 .45 1 1v1.81c1.8 1.03 3 2.97 3 5.19zm-1 0c0-2.77-2.23-5-5-5S1 5.23 1 8s2.23 5 5 5 5-2.23 5-5z" />
    </symbol>
  </defs>
</svg>
